<svg width="31" height="30" viewBox="0 0 31 30" fill="none" xmlns="http://www.w3.org/2000/svg">
<path d="M16.2674 30C12.0441 30 8.08131 28.3631 5.10906 25.3909C2.13681 22.4188 0.5 18.4558 0.5 14.2324C0.49937 11.3189 1.30609 8.46217 2.83061 5.97935C4.35514 3.49654 6.53784 1.48474 9.13644 0.167246C9.40378 0.0309623 9.70535 -0.0235577 10.0035 0.010492C10.3016 0.0445417 10.5831 0.165653 10.8129 0.358706C11.0426 0.55176 11.2104 0.808204 11.2953 1.09603C11.3802 1.38385 11.3784 1.6903 11.2902 1.97712C10.5487 4.37225 10.4758 6.92449 11.0794 9.35803C11.6831 11.7916 12.9403 14.0139 14.7152 15.7848C15.9889 17.068 17.5045 18.0858 19.1743 18.7793C20.844 19.4728 22.6348 19.8282 24.4428 19.825C25.8259 19.826 27.2013 19.6186 28.5226 19.2096C28.8095 19.1214 29.1159 19.1195 29.4038 19.2044C29.6917 19.2893 29.9481 19.4571 30.1412 19.6868C30.3343 19.9166 30.4554 20.1981 30.4894 20.4963C30.5235 20.7945 30.4689 21.0961 30.3326 21.3634C29.0151 23.962 27.0033 26.1447 24.5205 27.6693C22.0376 29.1938 19.181 30.0006 16.2674 30ZM9.08187 2.48631C7.0668 3.71236 5.40223 5.4377 4.24919 7.49542C3.09614 9.55315 2.49366 11.8736 2.5 14.2324C2.5 21.8238 8.676 28 16.2674 28C18.6262 28.0064 20.9467 27.4039 23.0044 26.2508C25.0622 25.0978 26.7875 23.4332 28.0136 21.4181C26.8427 21.6891 25.6448 21.8257 24.4429 21.8252C22.3722 21.8291 20.3212 21.4223 18.4087 20.6282C16.4962 19.8342 14.7602 18.6687 13.3012 17.1992C11.4058 15.3074 10.0237 12.9638 9.28549 10.3896C8.54725 7.81535 8.47718 5.09549 9.08187 2.48668V2.48631Z" fill="#6B6B6B"/>
</svg>
